<svg xmlns="http://www.w3.org/2000/svg" viewBox="0 0 1200 800">
  <defs>
    <radialGradient id="space" cx="50%" cy="40%" r="75%">
      <stop offset="0%" stop-color="#013a63"/>
      <stop offset="55%" stop-color="#021e38"/>
      <stop offset="100%" stop-color="#01010a"/>
    </radialGradient>
    <radialGradient id="earth-glow" cx="40%" cy="45%" r="38%">
      <stop offset="0%" stop-color="#4de2ff" stop-opacity="0.75"/>
      <stop offset="65%" stop-color="#3a9cd6" stop-opacity="0.55"/>
      <stop offset="100%" stop-color="transparent"/>
    </radialGradient>
    <linearGradient id="terminator" x1="0%" y1="40%" x2="100%" y2="60%">
      <stop offset="0%" stop-color="#0a3953" stop-opacity="0.9"/>
      <stop offset="45%" stop-color="#07243a" stop-opacity="0.65"/>
      <stop offset="100%" stop-color="transparent"/>
    </linearGradient>
  </defs>
  <rect width="1200" height="800" fill="url(#space)"/>
  <g fill="#fff" opacity="0.55">
    <circle cx="140" cy="90" r="2"/>
    <circle cx="280" cy="160" r="1.6"/>
    <circle cx="500" cy="140" r="1.4"/>
    <circle cx="740" cy="80" r="1.8"/>
    <circle cx="960" cy="120" r="1.7"/>
    <circle cx="1080" cy="200" r="1.2"/>
    <circle cx="900" cy="320" r="1.4"/>
    <circle cx="620" cy="260" r="1.6"/>
    <circle cx="450" cy="360" r="1.3"/>
    <circle cx="290" cy="440" r="1.7"/>
    <circle cx="1100" cy="540" r="1.5"/>
    <circle cx="840" cy="600" r="1.1"/>
    <circle cx="620" cy="640" r="1.2"/>
    <circle cx="360" cy="650" r="1.4"/>
    <circle cx="180" cy="520" r="1.3"/>
  </g>
  <circle cx="520" cy="420" r="260" fill="url(#earth-glow)"/>
  <path d="M310 320 C380 260, 460 220, 540 260 S680 380, 720 420 800 500, 740 520 600 520, 550 500 480 470, 420 480 360 450, 320 420" fill="#78e5c2" opacity="0.55"/>
  <path d="M350 580 C420 620, 520 640, 620 600 720 560, 820 600, 860 620 780 700, 600 720, 520 720 420 700, 360 640, 350 580" fill="#2f97b3" opacity="0.55"/>
  <circle cx="520" cy="420" r="260" fill="url(#terminator)" opacity="0.85"/>
  <text x="50%" y="90%" font-family="Orbitron, 'Segoe UI', sans-serif" font-size="42" fill="#8ee5ff" letter-spacing="0.45em" text-anchor="middle" opacity="0.7">EARTH · DEMO</text>
</svg>
