<svg xmlns="http://www.w3.org/2000/svg" viewBox="0 0 1200 800">
  <defs>
    <linearGradient id="bg-mars" x1="0%" y1="0%" x2="100%" y2="100%">
      <stop offset="0%" stop-color="#28120c"/>
      <stop offset="45%" stop-color="#401512"/>
      <stop offset="100%" stop-color="#090306"/>
    </linearGradient>
    <radialGradient id="sunset" cx="78%" cy="18%" r="40%">
      <stop offset="0%" stop-color="#ffa867" stop-opacity="0.6"/>
      <stop offset="50%" stop-color="#ff5f4d" stop-opacity="0.25"/>
      <stop offset="100%" stop-color="transparent"/>
    </radialGradient>
    <linearGradient id="terrain" x1="0%" y1="0%" x2="0%" y2="100%">
      <stop offset="0%" stop-color="#d48352" stop-opacity="0.6"/>
      <stop offset="100%" stop-color="#7a3b1e" stop-opacity="0.9"/>
    </linearGradient>
  </defs>
  <rect width="1200" height="800" fill="url(#bg-mars)"/>
  <circle cx="950" cy="140" r="220" fill="url(#sunset)"/>
  <g fill="#ffd7b3" opacity="0.5">
    <circle cx="220" cy="180" r="1.8"/>
    <circle cx="420" cy="120" r="1.5"/>
    <circle cx="640" cy="80" r="1.9"/>
    <circle cx="900" cy="260" r="1.7"/>
    <circle cx="1040" cy="200" r="1.3"/>
    <circle cx="780" cy="180" r="1.5"/>
    <circle cx="520" cy="210" r="1.2"/>
  </g>
  <path d="
    M0 520
    C120 480, 220 420, 360 430
    S620 540, 760 510
    960 430, 1200 480
    L1200 800
    L0 800 Z" fill="url(#terrain)"/>
  <path d="
    M0 620
    C180 580, 320 600, 420 580
    S660 560, 840 600
    1040 640, 1200 620
    L1200 800
    L0 800 Z" fill="#4e2513" opacity="0.55"/>
  <g opacity="0.7">
    <path d="M720 620 h80 l-24 -80 h-40 z" fill="#d2a27d"/>
    <rect x="744" y="560" width="48" height="14" rx="7" fill="#f7d7b9"/>
    <circle cx="760" cy="666" r="7" fill="#f7d7b9"/>
    <circle cx="792" cy="666" r="7" fill="#f7d7b9"/>
  </g>
  <text x="50%" y="90%" font-family="Orbitron, 'Segoe UI', sans-serif" font-size="48" fill="#ffc49e" letter-spacing="0.35em" text-anchor="middle" opacity="0.75">MARS · SIMULATION</text>
</svg>
